<svg xmlns="http://www.w3.org/2000/svg" width="54" height="55" viewBox="0 0 54 55" fill="none">
<path d="M26.1055 0.833967C26.6187 0.388677 27.3813 0.388678 27.8946 0.833968L32.4645 4.79883C32.7812 5.07359 33.2066 5.18757 33.6182 5.10796L39.5583 3.95926C40.2254 3.83025 40.8859 4.21156 41.1077 4.85381L43.083 10.5725C43.2199 10.9687 43.5313 11.2801 43.9276 11.417L49.6462 13.3923C50.2885 13.6141 50.6698 14.2746 50.5407 14.9417L49.392 20.8818C49.3124 21.2934 49.4264 21.7188 49.7012 22.0355L53.666 26.6055C54.1113 27.1187 54.1113 27.8813 53.666 28.3946L49.7012 32.9645C49.4264 33.2812 49.3124 33.7066 49.392 34.1182L50.5407 40.0583C50.6698 40.7254 50.2885 41.3859 49.6462 41.6077L43.9276 43.583C43.5313 43.7199 43.2199 44.0313 43.083 44.4276L41.1077 50.1462C40.8859 50.7885 40.2254 51.1698 39.5583 51.0407L33.6182 49.892C33.2066 49.8124 32.7812 49.9264 32.4645 50.2012L27.8946 54.166C27.3813 54.6113 26.6187 54.6113 26.1055 54.166L21.5355 50.2012C21.2188 49.9264 20.7934 49.8124 20.3818 49.892L14.4417 51.0407C13.7746 51.1698 13.1141 50.7885 12.8923 50.1462L10.917 44.4276C10.7801 44.0313 10.4687 43.7199 10.0725 43.583L4.35381 41.6077C3.71156 41.3859 3.33025 40.7254 3.45926 40.0583L4.60796 34.1182C4.68757 33.7066 4.57359 33.2812 4.29883 32.9645L0.333967 28.3946C-0.111323 27.8813 -0.111322 27.1187 0.333968 26.6055L4.29883 22.0355C4.57359 21.7188 4.68757 21.2934 4.60796 20.8818L3.45926 14.9417C3.33025 14.2746 3.71156 13.6141 4.35381 13.3923L10.0725 11.417C10.4687 11.2801 10.7801 10.9687 10.917 10.5725L12.8923 4.85381C13.1141 4.21156 13.7746 3.83025 14.4417 3.95926L20.3818 5.10796C20.7934 5.18757 21.2188 5.07359 21.5355 4.79883L26.1055 0.833967Z" fill="#FEE9E5"/>
<path d="M15.9259 24.8796C15.6683 24.9486 15.421 24.9596 15.1842 24.9127C14.9505 24.8649 14.7486 24.7619 14.5786 24.6039C14.4077 24.4426 14.2869 24.23 14.2161 23.966L13.7231 22.1259C13.7007 22.0422 13.7096 21.9725 13.7499 21.9168C13.7934 21.8603 13.8876 21.8126 14.0325 21.7738C14.1774 21.735 14.2812 21.7296 14.3439 21.7577C14.4099 21.7848 14.4541 21.8403 14.4765 21.924L14.9579 23.7206C15.0123 23.9235 15.1125 24.0657 15.2586 24.1473C15.4071 24.2249 15.5682 24.2404 15.7421 24.1938C15.916 24.1472 16.0462 24.0536 16.1328 23.9131C16.2217 23.7685 16.239 23.5948 16.1846 23.3919L15.7032 21.5953C15.6808 21.5116 15.6897 21.4419 15.73 21.3862C15.7736 21.3297 15.8678 21.2821 16.0127 21.2432C16.1575 21.2044 16.2614 21.199 16.3241 21.2271C16.39 21.2543 16.4342 21.3097 16.4567 21.3934L16.9497 23.2335C17.0205 23.4975 17.0221 23.7421 16.9548 23.9672C16.8866 24.1891 16.7632 24.3792 16.5848 24.5374C16.4063 24.6957 16.1867 24.8097 15.9259 24.8796ZM18.5459 25.2025C18.4042 25.2405 18.3004 25.2458 18.2344 25.2187C18.1717 25.1906 18.1291 25.1347 18.1067 25.051L17.2953 22.0228C17.2729 21.9391 17.2818 21.8694 17.3221 21.8138C17.3656 21.7572 17.4582 21.71 17.5999 21.672C17.7415 21.6341 17.8437 21.6291 17.9065 21.6572C17.9724 21.6844 18.0166 21.7398 18.0391 21.8235L18.0714 21.9443L18.11 21.9339C18.1526 21.8224 18.2275 21.7092 18.3348 21.5942C18.4452 21.4783 18.5938 21.3954 18.7805 21.3453C18.9802 21.2918 19.1763 21.2962 19.369 21.3585C19.564 21.4166 19.7373 21.5289 19.8889 21.6954C20.0437 21.861 20.1569 22.0774 20.2285 22.3446C20.2993 22.6086 20.309 22.851 20.2577 23.0718C20.2097 23.2918 20.1162 23.4773 19.9772 23.6284C19.8406 23.7754 19.6725 23.8757 19.4729 23.9292C19.2861 23.9792 19.116 23.9817 18.9624 23.9366C18.8112 23.8873 18.6897 23.8267 18.5979 23.7547L18.5593 23.765L18.8504 24.8517C18.8729 24.9354 18.8623 25.0055 18.8188 25.0621C18.7785 25.1177 18.6875 25.1645 18.5459 25.2025ZM19.0583 23.3673C19.2387 23.319 19.3639 23.2199 19.4342 23.0699C19.5076 22.9191 19.5181 22.7455 19.4654 22.5491C19.4128 22.3527 19.317 22.2075 19.1779 22.1137C19.0413 22.0157 18.8828 21.9909 18.7025 22.0392C18.5254 22.0866 18.4005 22.1874 18.3279 22.3414C18.2545 22.4922 18.244 22.6658 18.2967 22.8623C18.3493 23.0587 18.4451 23.2038 18.5842 23.2977C18.7232 23.3916 18.8813 23.4148 19.0583 23.3673ZM22.0256 23.2452C21.8646 23.2883 21.7096 23.3022 21.5606 23.287C21.4148 23.2708 21.2861 23.2156 21.1745 23.1212C21.0653 23.0228 20.9844 22.8754 20.9318 22.679L20.6251 21.5344L20.4609 21.5784C20.3772 21.6008 20.3092 21.5983 20.257 21.5709C20.2048 21.5435 20.1632 21.4718 20.1321 21.3559C20.101 21.24 20.1008 21.1555 20.1315 21.1024C20.1621 21.0493 20.2193 21.0116 20.303 20.9891L20.4672 20.9451L20.3417 20.4767C20.3193 20.393 20.3282 20.3233 20.3685 20.2676C20.412 20.2111 20.503 20.1643 20.6415 20.1272C20.7831 20.0892 20.8869 20.0838 20.9529 20.111C21.0188 20.1382 21.063 20.1937 21.0855 20.2774L21.211 20.7459L21.7278 20.6074C21.8115 20.585 21.8799 20.5891 21.9329 20.6197C21.9851 20.6471 22.0268 20.7188 22.0578 20.8347C22.0889 20.9506 22.0891 21.0351 22.0585 21.0882C22.027 21.138 21.9693 21.1742 21.8856 21.1966L21.3689 21.3351L21.6562 22.4072C21.6786 22.491 21.7199 22.542 21.78 22.5604C21.8402 22.5788 21.8992 22.5802 21.9572 22.5647C22.0151 22.5492 22.0841 22.5169 22.1641 22.4678C22.2081 22.4388 22.2462 22.42 22.2784 22.4113C22.3299 22.3975 22.3765 22.404 22.4182 22.4308C22.4623 22.4535 22.5068 22.5037 22.5517 22.5814C22.5874 22.6374 22.6118 22.6895 22.6247 22.7378C22.6394 22.7926 22.637 22.8415 22.6175 22.8847C22.5971 22.9247 22.563 22.9649 22.5152 23.0053C22.4442 23.0623 22.3658 23.1109 22.2799 23.1511C22.1973 23.1905 22.1125 23.2219 22.0256 23.2452ZM24.2464 22.6501C23.9953 22.7174 23.7557 22.7247 23.5276 22.6719C23.2986 22.6159 23.1003 22.5069 22.9326 22.3447C22.7641 22.1794 22.6453 21.9679 22.5763 21.7104C22.5064 21.4496 22.5035 21.207 22.5677 20.9828C22.6318 20.7585 22.7495 20.5666 22.9206 20.4068C23.0918 20.2471 23.3029 20.1336 23.5541 20.0663C23.8052 19.999 24.0448 19.9917 24.2729 20.0445C24.501 20.0972 24.6989 20.2047 24.8666 20.3668C25.0343 20.5289 25.153 20.7404 25.2229 21.0012C25.2919 21.2588 25.2948 21.5013 25.2315 21.7288C25.1674 21.953 25.0501 22.1466 24.8799 22.3096C24.7087 22.4693 24.4976 22.5828 24.2464 22.6501ZM24.0743 22.0078C24.2385 21.9638 24.3566 21.87 24.4286 21.7265C24.5038 21.5821 24.5142 21.4085 24.4598 21.2057C24.4055 21.0028 24.3101 20.8593 24.1736 20.7751C24.0395 20.6868 23.8904 20.6646 23.7262 20.7086C23.562 20.7526 23.4423 20.8468 23.3671 20.9912C23.2942 21.1315 23.285 21.303 23.3394 21.5059C23.3937 21.7087 23.4879 21.8543 23.622 21.9426C23.7593 22.0301 23.9101 22.0518 24.0743 22.0078Z" fill="#9E2418"/>
<path d="M22.0005 35.7477C21.5755 35.8616 21.2641 35.8778 21.0662 35.7962C20.878 35.712 20.7503 35.5444 20.683 35.2932L18.967 28.8891L18.2592 30.0727C18.2 30.161 18.1383 30.2396 18.074 30.3086C18.0167 30.3654 17.9446 30.4054 17.8577 30.4287C17.6548 30.4831 17.3781 30.3968 17.0274 30.1698C16.8656 30.0682 16.7389 29.9624 16.6473 29.8524C16.5557 29.7423 16.4969 29.639 16.471 29.5424C16.4452 29.4458 16.4447 29.3476 16.4697 29.2477C16.5044 29.1452 16.5548 29.0437 16.621 28.9432L18.1593 26.5122C18.2795 26.304 18.4197 26.1318 18.5799 25.9957C18.7498 25.857 18.999 25.7437 19.3274 25.6557C19.7138 25.5522 20.0072 25.546 20.2076 25.6372C20.4151 25.7162 20.5512 25.8765 20.6159 26.1179L22.9143 34.6954C22.9816 34.9465 22.9499 35.1569 22.8194 35.3264C22.6985 35.4934 22.4255 35.6338 22.0005 35.7477ZM25.5333 34.6769C25.1952 34.7675 24.9404 34.7633 24.7689 34.6643C24.5975 34.5653 24.4665 34.3467 24.3759 34.0087L24.271 33.6175C24.2012 33.3567 24.178 33.1351 24.2016 32.9528C24.2227 32.7608 24.284 32.5839 24.3856 32.4221L26.6878 28.9013C26.9597 28.4868 27.1355 28.1187 27.215 27.7972C27.3015 27.4634 27.3086 27.1613 27.2361 26.8909C27.1326 26.5045 26.9219 26.24 26.6042 26.0974C26.2961 25.9522 25.9586 25.9287 25.5915 26.0271C25.2921 26.1073 25.012 26.26 24.7514 26.4851C24.4979 26.698 24.2621 26.9579 24.0441 27.2647C23.902 27.4685 23.7633 27.5884 23.6281 27.6247C23.4252 27.679 23.1691 27.5924 22.8596 27.3647C22.5624 27.1441 22.3892 26.9421 22.34 26.7585C22.296 26.5943 22.3447 26.3898 22.4862 26.1448C22.7645 25.6768 23.137 25.2509 23.6035 24.8671C24.0701 24.4832 24.6221 24.2059 25.2596 24.0351C25.9165 23.8591 26.5345 23.8281 27.1137 23.942C27.693 24.056 28.1883 24.3012 28.5997 24.6775C29.0085 25.0442 29.2945 25.5318 29.4575 26.1403C29.6051 26.6909 29.6022 27.2404 29.4489 27.7887C29.3027 28.3248 28.9775 28.9659 28.4734 29.7117L26.8655 32.1148L30.2849 31.1985C30.536 31.1313 30.7438 31.1532 30.9082 31.2645C31.0726 31.3757 31.2079 31.6293 31.314 32.0254C31.4175 32.4117 31.4272 32.699 31.343 32.8872C31.2563 33.0658 31.0873 33.1887 30.8362 33.256L25.5333 34.6769Z" fill="#9E2418"/>
<path d="M33.0116 25.9852C32.7025 26.068 32.4025 26.069 32.1117 25.9882C31.8209 25.9074 31.5677 25.7612 31.3523 25.5498C31.1434 25.3366 30.9975 25.0755 30.9147 24.7664C30.8301 24.4508 30.8259 24.1517 30.902 23.8691C30.9828 23.5783 31.1289 23.3251 31.3404 23.1097C31.5519 22.8943 31.8121 22.7452 32.1212 22.6624C32.4368 22.5779 32.7367 22.5769 33.0211 22.6594C33.3119 22.7402 33.5618 22.8872 33.7708 23.1004C33.9845 23.3054 34.1336 23.5657 34.2181 23.8812C34.3009 24.1903 34.302 24.4903 34.2211 24.7811C34.1468 25.0702 34.0038 25.3225 33.7924 25.5379C33.5874 25.7515 33.3271 25.9006 33.0116 25.9852ZM33.6425 29.4603C33.5395 29.4879 33.4089 29.4642 33.2508 29.3893C33.0681 29.3002 32.9604 29.1944 32.9277 29.0721C32.9 28.9691 32.9237 28.8385 32.9987 28.6804L36.1392 21.855C36.2154 21.6758 36.3179 21.569 36.4467 21.5345C36.4982 21.5207 36.554 21.523 36.6142 21.5413C36.679 21.5516 36.7506 21.5738 36.8288 21.6081C36.9297 21.65 37.0049 21.6989 37.0544 21.7547C37.1038 21.8104 37.1363 21.8673 37.1519 21.9253C37.1795 22.0283 37.1558 22.1589 37.0808 22.317L33.9404 29.1424C33.8641 29.3215 33.7648 29.4275 33.6425 29.4603ZM32.7579 25.0386C32.9318 24.992 33.0626 24.8879 33.1505 24.7263C33.2366 24.5583 33.2512 24.3681 33.1942 24.1556C33.1373 23.9431 33.0304 23.7888 32.8735 23.6928C32.715 23.5904 32.5487 23.5624 32.3749 23.609C32.201 23.6556 32.071 23.7629 31.9849 23.9309C31.8971 24.0925 31.8816 24.2795 31.9385 24.492C31.9955 24.7045 32.1032 24.862 32.2618 24.9645C32.4187 25.0605 32.5841 25.0852 32.7579 25.0386ZM37.9609 28.3446C37.6518 28.4274 37.3518 28.4284 37.061 28.3476C36.7702 28.2668 36.5179 28.1239 36.3042 27.9189C36.0953 27.7057 35.9485 27.4413 35.864 27.1258C35.7794 26.8103 35.7752 26.5112 35.8513 26.2285C35.9321 25.9377 36.0783 25.6846 36.2897 25.4692C36.5012 25.2538 36.7614 25.1046 37.0705 25.0218C37.3861 24.9373 37.686 24.9363 37.9704 25.0188C38.2612 25.0996 38.5111 25.2466 38.7201 25.4598C38.9338 25.6648 39.0829 25.9251 39.1674 26.2406C39.252 26.5562 39.2538 26.8594 39.173 27.1502C39.0969 27.4328 38.9532 27.6819 38.7417 27.8973C38.5367 28.111 38.2764 28.2601 37.9609 28.3446ZM37.7072 27.398C37.8811 27.3514 38.0119 27.2473 38.0998 27.0858C38.1859 26.9177 38.2005 26.7275 38.1436 26.515C38.0866 26.3025 37.9797 26.1482 37.8229 26.0522C37.6643 25.9498 37.498 25.9218 37.3242 25.9684C37.1503 26.015 37.0203 26.1223 36.9342 26.2903C36.8464 26.4519 36.8309 26.6389 36.8878 26.8515C36.9448 27.064 37.0526 27.2214 37.2111 27.3239C37.368 27.4199 37.5334 27.4446 37.7072 27.398Z" fill="#9E2418"/>
<path d="M34.5915 33.3263C34.3468 33.3919 34.113 33.3952 33.8901 33.3362C33.6672 33.2772 33.4722 33.1624 33.3051 32.9919C33.1398 32.8181 33.0202 32.5933 32.9464 32.3177C32.8725 32.0421 32.864 31.789 32.921 31.5584C32.9798 31.3246 33.0909 31.1264 33.2544 30.9639C33.418 30.8013 33.6221 30.6873 33.8668 30.6217C34.1115 30.5562 34.3452 30.5529 34.5681 30.6119C34.791 30.6709 34.985 30.7873 35.1503 30.9611C35.3175 31.1316 35.438 31.3547 35.5119 31.6303C35.5857 31.9059 35.5932 32.1607 35.5344 32.3945C35.4775 32.6251 35.3673 32.8217 35.2038 32.9842C35.0403 33.1467 34.8362 33.2608 34.5915 33.3263ZM34.4403 32.7622C34.6309 32.7111 34.7697 32.6008 34.8568 32.4311C34.9432 32.2589 34.9529 32.0479 34.8859 31.798C34.819 31.5482 34.7054 31.3716 34.5452 31.2682C34.3843 31.1622 34.2085 31.1348 34.0179 31.1858C33.8273 31.2369 33.6888 31.3486 33.6024 31.5208C33.5154 31.6904 33.5053 31.9002 33.5723 32.15C33.6392 32.3999 33.7532 32.5778 33.9141 32.6837C34.0743 32.7871 34.2497 32.8133 34.4403 32.7622ZM36.6296 32.7719C36.5111 32.8037 36.4255 32.8087 36.3727 32.7869C36.3225 32.7645 36.2885 32.7198 36.2705 32.6528L35.6773 30.4389C35.6532 30.3487 35.653 30.2811 35.6768 30.2361C35.7032 30.1904 35.7615 30.1554 35.8516 30.1313L37.1499 29.7834C37.2168 29.7655 37.2722 29.7714 37.3161 29.801C37.3599 29.8307 37.396 29.8983 37.4243 30.0039C37.4526 30.1095 37.4551 30.1861 37.432 30.2338C37.4089 30.2814 37.3638 30.3141 37.2969 30.3321L36.3696 30.5806L36.5321 31.1872L37.3087 30.9791C37.3757 30.9611 37.4307 30.9657 37.4739 30.9928C37.517 31.0199 37.5521 31.0836 37.579 31.1841C37.6059 31.2846 37.6075 31.3573 37.5836 31.4023C37.5598 31.4474 37.5144 31.4789 37.4474 31.4968L36.6708 31.7049L36.881 32.4892C36.8989 32.5562 36.8918 32.6119 36.8596 32.6565C36.8273 32.701 36.7507 32.7395 36.6296 32.7719ZM38.735 32.2078C38.6165 32.2395 38.5309 32.2445 38.4781 32.2228C38.428 32.2003 38.3939 32.1556 38.3759 32.0886L37.7827 29.8747C37.7586 29.7846 37.7584 29.717 37.7822 29.672C37.8086 29.6262 37.8669 29.5913 37.9571 29.5671L39.2553 29.2193C39.3222 29.2013 39.3776 29.2072 39.4215 29.2369C39.4653 29.2665 39.5014 29.3342 39.5297 29.4398C39.558 29.5454 39.5606 29.622 39.5374 29.6696C39.5143 29.7172 39.4692 29.75 39.4023 29.7679L38.475 30.0164L38.6375 30.623L39.4141 30.4149C39.4811 30.397 39.5362 30.4015 39.5793 30.4286C39.6225 30.4557 39.6575 30.5195 39.6844 30.62C39.7113 30.7204 39.7129 30.7932 39.689 30.8382C39.6652 30.8832 39.6198 30.9147 39.5529 30.9327L38.7763 31.1407L38.9864 31.9251C39.0044 31.992 38.9972 32.0478 38.965 32.0923C38.9327 32.1369 38.8561 32.1753 38.735 32.2078Z" fill="#9E2418"/>
<script xmlns=""/></svg>