<svg xmlns="http://www.w3.org/2000/svg" width="32" height="32" viewBox="0 0 32 32" fill="none">
<path d="M4.38086 16H27.619V26.0952C27.619 27.8836 26.1692 29.3333 24.3809 29.3333H7.61895C5.8306 29.3333 4.38086 27.8836 4.38086 26.0952V16Z" fill="#464C5B"/>
<path d="M2.66663 9.71424C2.66663 8.87266 3.34886 8.19043 4.19044 8.19043H27.8095C28.6511 8.19043 29.3333 8.87266 29.3333 9.71424V14.4761C29.3333 15.3177 28.6511 16 27.8095 16H4.19044C3.34886 16 2.66663 15.3177 2.66663 14.4761V9.71424Z" fill="#5E6B82"/>
<path d="M12.9524 8.19043H19.0476V29.3333H12.9524V8.19043Z" fill="#E6EFFF"/>
<path opacity="0.4" d="M12.9524 16H19.0476V19.8095H12.9524V16Z" fill="#AEBEDD"/>
<path fill-rule="evenodd" clip-rule="evenodd" d="M20.2895 2.66663C21.8129 2.66663 23.0476 3.90285 23.0476 5.42853C23.0476 6.9531 21.8129 8.19044 20.2895 8.19044H16L17.9497 3.96693C18.4368 3.18586 19.3028 2.66663 20.2895 2.66663Z" fill="#E6EFFF"/>
<path fill-rule="evenodd" clip-rule="evenodd" d="M11.8253 2.66663C12.7864 2.66663 13.6279 3.18586 14.103 3.96693L16 8.19044H11.8253C10.3442 8.19044 9.14282 6.9531 9.14282 5.42853C9.14282 3.90285 10.3442 2.66663 11.8253 2.66663Z" fill="#E6EFFF"/>
<g style="mix-blend-mode:color">
<path d="M23.0476 5.42853C23.0476 3.90285 21.8128 2.66663 20.2894 2.66663C19.3028 2.66663 18.4367 3.18586 17.9496 3.96693L16 8.19044L14.103 3.96693C13.6279 3.18586 12.7864 2.66663 11.8253 2.66663C10.3442 2.66663 9.14282 3.90285 9.14282 5.42853C9.14282 6.9531 10.3442 8.19044 11.8253 8.19044H4.19044C3.34886 8.19044 2.66663 8.87267 2.66663 9.71425V14.4761C2.66663 15.3177 3.34886 16 4.19044 16H4.38091V26.0952C4.38091 27.8835 5.83066 29.3333 7.61901 29.3333H24.3809C26.1693 29.3333 27.619 27.8835 27.619 26.0952V16H27.8095C28.6511 16 29.3333 15.3177 29.3333 14.4761V9.71425C29.3333 8.87267 28.6511 8.19044 27.8095 8.19044H20.2894C21.8128 8.19044 23.0476 6.9531 23.0476 5.42853Z" fill="#CF2061"/>
</g>
<script xmlns=""/></svg>